<svg width="49" height="46" viewBox="0 0 49 46" fill="none" xmlns="http://www.w3.org/2000/svg">
<g id="MOBILE MENU CHARACTERS" clip-path="url(#clip0_1247_34230)">
<path id="Vector" d="M-6.99998 40.2905L25.9898 59.3372C25.9898 59.3372 48.1229 19.2256 43.0026 16.2694C40.6469 14.9094 33.7557 21.4049 31.3823 23.6948L21.9595 18.2545C21.9595 18.2545 26.1135 6.51849 23.3684 4.93361C20.6233 3.34873 11.4751 10.1117 -6.99998 40.2905Z" fill="url(#paint0_linear_1247_34230)"/>
<path id="Vector_2" d="M18.1836 38.3727C17.0934 37.7433 16.7287 36.3516 17.3582 35.2614L18.471 33.334C18.6002 33.1101 18.892 33.0319 19.1158 33.1612C19.3397 33.2904 19.4179 33.5822 19.2886 33.806L18.1759 35.7335C17.8105 36.3662 18.023 37.1897 18.6654 37.5606C19.3079 37.9316 20.1217 37.7135 20.4926 37.071C20.6219 36.8472 20.9136 36.769 21.1375 36.8982C21.3614 37.0275 21.4396 37.3192 21.3103 37.5431C20.6809 38.6334 19.2836 39.0078 18.2031 38.3839L18.1836 38.3727Z" fill="#231F20"/>
<path id="Vector_3" d="M15.0589 36.5686C13.9686 35.9392 13.604 34.5475 14.2334 33.4573C14.3627 33.2334 14.6544 33.1552 14.8783 33.2845C15.1022 33.4138 15.1804 33.7055 15.0511 33.9294C14.6858 34.5621 14.8982 35.3856 15.5407 35.7566C16.1832 36.1275 16.997 35.9094 17.3679 35.267C17.4972 35.0431 17.7889 34.9649 18.0128 35.0942C18.2367 35.2234 18.3149 35.5152 18.1856 35.7391C17.5561 36.8293 16.1589 37.2037 15.0784 36.5799L15.0589 36.5686Z" fill="#231F20"/>
<path id="Vector_4" d="M17.9869 33.0934C18.1885 33.8458 18.9672 34.2954 19.7196 34.0938L21.0652 33.7415C21.8175 33.5399 21.8379 33.0325 21.1078 32.611L18.5866 31.1553C17.8565 30.7338 17.4273 31.0052 17.6289 31.7576L17.9966 33.099L17.9869 33.0934Z" fill="#231F20"/>
<path id="Vector_5" d="M24.9021 38.1112C25.8805 38.6761 27.2147 38.1971 27.882 37.0412C28.5494 35.8853 28.2972 34.4904 27.3187 33.9255C26.3403 33.3605 25.0061 33.8396 24.3387 34.9955C23.6714 36.1513 23.9236 37.5463 24.9021 38.1112Z" fill="#231F20"/>
<path id="Vector_6" d="M11.9359 30.6252C12.9143 31.1901 14.2485 30.7111 14.9159 29.5552C15.5832 28.3993 15.331 27.0043 14.3525 26.4394C13.3741 25.8745 12.0399 26.3536 11.3725 27.5095C10.7052 28.6653 10.9574 30.0603 11.9359 30.6252Z" fill="#231F20"/>
</g>
<defs>
<linearGradient id="paint0_linear_1247_34230" x1="14.9896" y1="8.61045" x2="23.7297" y2="61.2511" gradientUnits="userSpaceOnUse">
<stop stop-color="#FF7F40"/>
<stop offset="0.06" stop-color="#FF8245"/>
<stop offset="0.45" stop-color="#FF9A66"/>
<stop offset="0.78" stop-color="#FFA97B"/>
<stop offset="1" stop-color="#FFAF83"/>
</linearGradient>
<clipPath id="clip0_1247_34230">
<rect width="38.0933" height="45.8042" fill="white" transform="translate(15.9021 0.622955) rotate(30)"/>
</clipPath>
</defs>
</svg>
