<svg width="34" height="41" viewBox="0 0 34 41" fill="none" xmlns="http://www.w3.org/2000/svg">
<g id="MOBILE MEN FUN" clip-path="url(#clip0_790_26347)">
<path id="Vector" d="M0.0551758 41H33.9452C33.9452 41 33.1552 0.25 27.8952 0.25C25.4752 0.25 23.0552 8.32 22.2452 11.14H12.5652C12.5652 11.14 10.5452 0.25 7.72518 0.25C4.90518 0.25 0.865176 9.53 0.0551758 41Z" fill="url(#paint0_linear_790_26347)"/>
<path id="Vector_2" d="M18.605 28.3199C17.485 28.3199 16.585 27.4099 16.585 26.2899V24.3099C16.585 24.0799 16.775 23.8899 17.005 23.8899C17.235 23.8899 17.425 24.0799 17.425 24.3099V26.2899C17.425 26.9399 17.955 27.4799 18.615 27.4799C19.275 27.4799 19.805 26.9499 19.805 26.2899C19.805 26.0599 19.995 25.8699 20.225 25.8699C20.455 25.8699 20.645 26.0599 20.645 26.2899C20.645 27.4099 19.735 28.3199 18.625 28.3199H18.605Z" fill="#231F20"/>
<path id="Vector_3" d="M15.395 28.3201C14.275 28.3201 13.375 27.4101 13.375 26.2901C13.375 26.0601 13.565 25.8701 13.795 25.8701C14.025 25.8701 14.215 26.0601 14.215 26.2901C14.215 26.9401 14.745 27.4801 15.405 27.4801C16.065 27.4801 16.595 26.9501 16.595 26.2901C16.595 26.0601 16.785 25.8701 17.015 25.8701C17.245 25.8701 17.435 26.0601 17.435 26.2901C17.435 27.4101 16.525 28.3201 15.415 28.3201H15.395Z" fill="#231F20"/>
<path id="Vector_4" d="M16.1053 24.3401C16.5953 24.8301 17.3953 24.8301 17.8853 24.3401L18.7653 23.4701C19.2553 22.9801 19.0453 22.5801 18.2953 22.5801H15.7053C14.9553 22.5801 14.7453 22.9801 15.2353 23.4701L16.1153 24.3401H16.1053Z" fill="#231F20"/>
<path id="Vector_5" d="M23.6652 25.1301C24.6704 25.1301 25.4852 24.1675 25.4852 22.9801C25.4852 21.7927 24.6704 20.8301 23.6652 20.8301C22.6601 20.8301 21.8452 21.7927 21.8452 22.9801C21.8452 24.1675 22.6601 25.1301 23.6652 25.1301Z" fill="#231F20"/>
<path id="Vector_6" d="M10.3454 25.1301C11.3505 25.1301 12.1654 24.1675 12.1654 22.9801C12.1654 21.7927 11.3505 20.8301 10.3454 20.8301C9.34023 20.8301 8.52539 21.7927 8.52539 22.9801C8.52539 24.1675 9.34023 25.1301 10.3454 25.1301Z" fill="#231F20"/>
</g>
<defs>
<linearGradient id="paint0_linear_790_26347" x1="1.60518" y1="3.72" x2="30.9452" y2="42.84" gradientUnits="userSpaceOnUse">
<stop stop-color="#EB80A8"/>
<stop offset="0.26" stop-color="#EE8EB1"/>
<stop offset="0.7" stop-color="#F2A3BF"/>
<stop offset="1" stop-color="#F4ABC4"/>
</linearGradient>
<clipPath id="clip0_790_26347">
<rect width="33.89" height="40.75" fill="white" transform="translate(0.0551758 0.25)"/>
</clipPath>
</defs>
</svg>
