<svg width="34" height="41" viewBox="0 0 34 41" fill="none" xmlns="http://www.w3.org/2000/svg">
<g id="MOBILE MENU CHARACTERS" clip-path="url(#clip0_790_26309)">
<path id="Vector" d="M0.0551758 40.75H33.9452C33.9452 40.75 33.1552 0 27.8952 0C25.4752 0 23.0552 8.07 22.2452 10.89H12.5652C12.5652 10.89 10.5452 0 7.72518 0C4.90518 0 0.865176 9.28 0.0551758 40.75Z" fill="url(#paint0_linear_790_26309)"/>
<path id="Vector_2" d="M18.605 28.0699C17.485 28.0699 16.585 27.1599 16.585 26.0399V24.0599C16.585 23.8299 16.775 23.6399 17.005 23.6399C17.235 23.6399 17.425 23.8299 17.425 24.0599V26.0399C17.425 26.6899 17.955 27.2299 18.615 27.2299C19.275 27.2299 19.805 26.6999 19.805 26.0399C19.805 25.8099 19.995 25.6199 20.225 25.6199C20.455 25.6199 20.645 25.8099 20.645 26.0399C20.645 27.1599 19.735 28.0699 18.625 28.0699H18.605Z" fill="#231F20"/>
<path id="Vector_3" d="M15.395 28.0701C14.275 28.0701 13.375 27.1601 13.375 26.0401C13.375 25.8101 13.565 25.6201 13.795 25.6201C14.025 25.6201 14.215 25.8101 14.215 26.0401C14.215 26.6901 14.745 27.2301 15.405 27.2301C16.065 27.2301 16.595 26.7001 16.595 26.0401C16.595 25.8101 16.785 25.6201 17.015 25.6201C17.245 25.6201 17.435 25.8101 17.435 26.0401C17.435 27.1601 16.525 28.0701 15.415 28.0701H15.395Z" fill="#231F20"/>
<path id="Vector_4" d="M16.1053 24.0901C16.5953 24.5801 17.3953 24.5801 17.8853 24.0901L18.7653 23.2201C19.2553 22.7301 19.0453 22.3301 18.2953 22.3301H15.7053C14.9553 22.3301 14.7453 22.7301 15.2353 23.2201L16.1153 24.0901H16.1053Z" fill="#231F20"/>
<path id="Vector_5" d="M23.6652 24.8801C24.6704 24.8801 25.4852 23.9175 25.4852 22.7301C25.4852 21.5427 24.6704 20.5801 23.6652 20.5801C22.6601 20.5801 21.8452 21.5427 21.8452 22.7301C21.8452 23.9175 22.6601 24.8801 23.6652 24.8801Z" fill="#231F20"/>
<path id="Vector_6" d="M10.3454 24.8801C11.3505 24.8801 12.1654 23.9175 12.1654 22.7301C12.1654 21.5427 11.3505 20.5801 10.3454 20.5801C9.34023 20.5801 8.52539 21.5427 8.52539 22.7301C8.52539 23.9175 9.34023 24.8801 10.3454 24.8801Z" fill="#231F20"/>
</g>
<defs>
<linearGradient id="paint0_linear_790_26309" x1="2.90518" y1="6.56" x2="33.0552" y2="43.23" gradientUnits="userSpaceOnUse">
<stop stop-color="#FF7F40"/>
<stop offset="0.06" stop-color="#FF8245"/>
<stop offset="0.45" stop-color="#FF9A66"/>
<stop offset="0.78" stop-color="#FFA97B"/>
<stop offset="1" stop-color="#FFAF83"/>
</linearGradient>
<clipPath id="clip0_790_26309">
<rect width="33.89" height="40.75" fill="white" transform="translate(0.0551758)"/>
</clipPath>
</defs>
</svg>
