<svg width="34" height="42" viewBox="0 0 34 42" fill="none" xmlns="http://www.w3.org/2000/svg">
<g id="MOBILE MEN MUSIC" clip-path="url(#clip0_790_26339)">
<path id="Vector" d="M0.0551758 41.25H33.9452C33.9452 41.25 33.1552 0.5 27.8952 0.5C25.4752 0.5 23.0552 8.57 22.2452 11.39H12.5652C12.5652 11.39 10.5452 0.5 7.72518 0.5C4.90518 0.5 0.865176 9.78 0.0551758 41.25Z" fill="url(#paint0_linear_790_26339)"/>
<path id="Vector_2" d="M18.605 28.5699C17.485 28.5699 16.585 27.6599 16.585 26.5399V24.5599C16.585 24.3299 16.775 24.1399 17.005 24.1399C17.235 24.1399 17.425 24.3299 17.425 24.5599V26.5399C17.425 27.1899 17.955 27.7299 18.615 27.7299C19.275 27.7299 19.805 27.1999 19.805 26.5399C19.805 26.3099 19.995 26.1199 20.225 26.1199C20.455 26.1199 20.645 26.3099 20.645 26.5399C20.645 27.6599 19.735 28.5699 18.625 28.5699H18.605Z" fill="#231F20"/>
<path id="Vector_3" d="M15.395 28.5701C14.275 28.5701 13.375 27.6601 13.375 26.5401C13.375 26.3101 13.565 26.1201 13.795 26.1201C14.025 26.1201 14.215 26.3101 14.215 26.5401C14.215 27.1901 14.745 27.7301 15.405 27.7301C16.065 27.7301 16.595 27.2001 16.595 26.5401C16.595 26.3101 16.785 26.1201 17.015 26.1201C17.245 26.1201 17.435 26.3101 17.435 26.5401C17.435 27.6601 16.525 28.5701 15.415 28.5701H15.395Z" fill="#231F20"/>
<path id="Vector_4" d="M16.1053 24.5901C16.5953 25.0801 17.3953 25.0801 17.8853 24.5901L18.7653 23.7201C19.2553 23.2301 19.0453 22.8301 18.2953 22.8301H15.7053C14.9553 22.8301 14.7453 23.2301 15.2353 23.7201L16.1153 24.5901H16.1053Z" fill="#231F20"/>
<path id="Vector_5" d="M23.6652 25.3801C24.6704 25.3801 25.4852 24.4175 25.4852 23.2301C25.4852 22.0427 24.6704 21.0801 23.6652 21.0801C22.6601 21.0801 21.8452 22.0427 21.8452 23.2301C21.8452 24.4175 22.6601 25.3801 23.6652 25.3801Z" fill="#231F20"/>
<path id="Vector_6" d="M10.3454 25.3801C11.3505 25.3801 12.1654 24.4175 12.1654 23.2301C12.1654 22.0427 11.3505 21.0801 10.3454 21.0801C9.34023 21.0801 8.52539 22.0427 8.52539 23.2301C8.52539 24.4175 9.34023 25.3801 10.3454 25.3801Z" fill="#231F20"/>
</g>
<defs>
<linearGradient id="paint0_linear_790_26339" x1="4.11518" y1="7.31" x2="28.5552" y2="39.9" gradientUnits="userSpaceOnUse">
<stop stop-color="#6262D4"/>
<stop offset="0.23" stop-color="#6E6ED7"/>
<stop offset="0.69" stop-color="#8383DC"/>
<stop offset="1" stop-color="#8B8BDF"/>
</linearGradient>
<clipPath id="clip0_790_26339">
<rect width="33.89" height="40.75" fill="white" transform="translate(0.0551758 0.5)"/>
</clipPath>
</defs>
</svg>
