<svg width="34" height="42" viewBox="0 0 34 42" fill="none" xmlns="http://www.w3.org/2000/svg">
<g id="MOBILE MEN GROWN UPS" clip-path="url(#clip0_790_26363)">
<path id="Vector" d="M0.0551758 41.5H33.9452C33.9452 41.5 33.1552 0.75 27.8952 0.75C25.4752 0.75 23.0552 8.82 22.2452 11.64H12.5652C12.5652 11.64 10.5452 0.75 7.72518 0.75C4.90518 0.75 0.865176 10.03 0.0551758 41.5Z" fill="url(#paint0_linear_790_26363)"/>
<path id="Vector_2" d="M18.605 28.8199C17.485 28.8199 16.585 27.9099 16.585 26.7899V24.8099C16.585 24.5799 16.775 24.3899 17.005 24.3899C17.235 24.3899 17.425 24.5799 17.425 24.8099V26.7899C17.425 27.4399 17.955 27.9799 18.615 27.9799C19.275 27.9799 19.805 27.4499 19.805 26.7899C19.805 26.5599 19.995 26.3699 20.225 26.3699C20.455 26.3699 20.645 26.5599 20.645 26.7899C20.645 27.9099 19.735 28.8199 18.625 28.8199H18.605Z" fill="#231F20"/>
<path id="Vector_3" d="M15.395 28.8201C14.275 28.8201 13.375 27.9101 13.375 26.7901C13.375 26.5601 13.565 26.3701 13.795 26.3701C14.025 26.3701 14.215 26.5601 14.215 26.7901C14.215 27.4401 14.745 27.9801 15.405 27.9801C16.065 27.9801 16.595 27.4501 16.595 26.7901C16.595 26.5601 16.785 26.3701 17.015 26.3701C17.245 26.3701 17.435 26.5601 17.435 26.7901C17.435 27.9101 16.525 28.8201 15.415 28.8201H15.395Z" fill="#231F20"/>
<path id="Vector_4" d="M16.1053 24.8401C16.5953 25.3301 17.3953 25.3301 17.8853 24.8401L18.7653 23.9701C19.2553 23.4801 19.0453 23.0801 18.2953 23.0801H15.7053C14.9553 23.0801 14.7453 23.4801 15.2353 23.9701L16.1153 24.8401H16.1053Z" fill="#231F20"/>
<path id="Vector_5" d="M23.6652 25.6301C24.6704 25.6301 25.4852 24.6675 25.4852 23.4801C25.4852 22.2927 24.6704 21.3301 23.6652 21.3301C22.6601 21.3301 21.8452 22.2927 21.8452 23.4801C21.8452 24.6675 22.6601 25.6301 23.6652 25.6301Z" fill="#231F20"/>
<path id="Vector_6" d="M10.3454 25.6301C11.3505 25.6301 12.1654 24.6675 12.1654 23.4801C12.1654 22.2927 11.3505 21.3301 10.3454 21.3301C9.34023 21.3301 8.52539 22.2927 8.52539 23.4801C8.52539 24.6675 9.34023 25.6301 10.3454 25.6301Z" fill="#231F20"/>
</g>
<defs>
<linearGradient id="paint0_linear_790_26363" x1="2.90518" y1="7.31" x2="33.0552" y2="43.98" gradientUnits="userSpaceOnUse">
<stop stop-color="#FF38D0"/>
<stop offset="0.11" stop-color="#FF43D2"/>
<stop offset="0.48" stop-color="#FF64DA"/>
<stop offset="0.79" stop-color="#FF79DF"/>
<stop offset="1" stop-color="#FF81E1"/>
</linearGradient>
<clipPath id="clip0_790_26363">
<rect width="33.89" height="40.75" fill="white" transform="translate(0.0551758 0.75)"/>
</clipPath>
</defs>
</svg>
