<svg xml:space="preserve" viewBox="0 0 64 64" xmlns="http://www.w3.org/2000/svg"><g fill="#000000"><path d="M32 0C14.327 0 0 14.327 0 32s14.327 32 32 32 32-14.327 32-32S49.673 0 32 0m-4.181 6.415.176-.205c.446-.515.951-1.098 1.027-2.1.066-.833-.228-1.421-.546-1.897A30 30 0 0 1 32 2c1.465 0 2.903.11 4.312.313.262.327.606.668 1.164.897.592.255 1.291.457 2.171.249.26-.062.462-.172.636-.292a30 30 0 0 1 1.831.584c.211.609.616 1.335 1.604 1.46a2.6 2.6 0 0 0 1.428-.183c8.475 4.139 14.702 12.153 16.39 21.734a2.2 2.2 0 0 0-.193.901.6.6 0 0 0 .008.137c-.036.056-.082.085-.305.192-.255.123-.603.291-.924.629-.365.377-.533.75-.668 1.05-.105.234-.165.361-.274.47-.07.068-.206.109-.42.171-.418.12-1.049.301-1.473.988-.403.649-.369 1.249-.345 1.687l.009.153a2 2 0 0 1-.269.109 1.63 1.63 0 0 0-.217-1.202c-.382-.583-.887-.671-1.153-.671-.508 0-.891.292-1.137.531.005-.484-.006-.93-.085-1.264-.074-.336-.027-.523.131-1.065l.055-.19c.071-.258.212-.442.406-.698.267-.35.599-.785.757-1.457.177-.732.125-1.272.074-1.795a9 9 0 0 1-.047-.605l-.019-.529c-.02-.622-.036-1.159-.189-1.943l-.069-.349c-.154-.787-.288-1.466-.85-2.323-.481-.719-.861-1.224-1.704-1.672a3.4 3.4 0 0 0-.617-.263c-.341-.114-.653-.153-.955-.192l-.312-.042c-.533-.078-1.013.015-1.366.087-.286.058-.468.105-.611.026-.143-.078-.211-.16-.388-.384a7 7 0 0 0-.324-.389c-.132-.142-.222-.274-.309-.399-.172-.245-.385-.551-.76-.854-.4-.325-.705-.553-1.279-.754-1.021-.338-1.96-.086-2.77.201-.664.23-1.069.564-1.428.858-.157.13-.323.268-.484.376-.158.092-.3.156-.434.22-.316.147-.675.315-1.072.668-.276.242-1.213.853-1.43.908-.097-.004-.193-.043-.368-.118-.226-.098-.534-.229-.89-.258l-.217-.013a2 2 0 0 0-.187.009c-.454.034-.773.182-1.008.289-.092.042-.186.09-.304.119-.346.086-.736.08-1.128.059-.627-.032-1.242-.014-1.806.146-.463.131-.798.357-1.042.523-.263.178-.326.209-.426.21-.101 0-.173-.042-.452-.262-.276-.218-.655-.517-1.214-.672a6.5 6.5 0 0 0-.994-.18l-.277-.034c-.525-.076-.9-.107-1.325-.142-.197-.016-.405-.032-.648-.056l-.282-.005-.046.018-.115.006-.011-.007a8 8 0 0 0-1.137-.688 9 9 0 0 0-.969-.425c-.014-.357-.054-.833-.161-1.153a3 3 0 0 0-.078-.217c.011-.046.031-.123.07-.24.13-.376.332-.658.42-.771l.152-.101c.187-.12.418-.27.656-.528.667-.706.97-1.387 1.046-2.357.06-.866-.423-1.448-.743-1.834-.092-.109-.234-.28-.254-.302.043-.169.118-.242.536-.519.228-.151.466-.312.693-.511.258-.223.506-.364.792-.527.448-.255.955-.544 1.44-1.128M4.406 43.785a29.8 29.8 0 0 1-2.225-8.511c.245-.46.542-.906.946-1.398.289-.345.596-.554.95-.795.431-.294.92-.628 1.383-1.207.556-.677.738-1.399.885-1.98.158-.623.248-.933.578-1.162.46-.314.824-.348 1.484-.41.237-.021.488-.046.765-.085l.368-.054c1.298-.191 2.127-.277 3.206.027.732.205 1.183.547 1.754.979.376.285.802.607 1.346.918.422.241.779.507 1.124.764.771.573 1.568 1.165 2.893 1.359.76.105 1.4-.13 1.885-.313.243-.093.473-.18.616-.18.033 0 .075.003.143.04.655.364.801.666.828.873-.14.039-.343.074-.492.101-.703.123-2.011.352-2.162 1.699-.076.65.147 1.057.35 1.283.524.591 1.501.528 2.602.28.474-.107.965-.219 1.358-.219.179 0 .285.024.333.041.29.105.603.182.908.254.134.031.313.073.467.115l-.327.059c-.461.079-.982.169-1.459.396a24 24 0 0 0-.998.498c-.614.318-1.1.57-1.84.771-.226.06-.569.009-.93-.052a5 5 0 0 0-.893-.099c-.738 0-1.319.293-1.723.865-.924 1.292-.376 2.643-.112 3.294.359.883 1.205 1.936 3.187 1.936.933 0 2.012-.227 3.395-.713.954-.338 1.513-.949 1.961-1.441.362-.398.648-.712 1.11-.918l.509-.232c1.048-.483 1.815-.827 2.639-.439.221.104.317.302.518.798.233.578.553 1.37 1.444 1.844.811.43 1.824.274 2.564.062.444-.127.8-.236 1.058-.085.271.161.383.379.589.817.184.391.412.877.853 1.339q.197.209.375.404c.731.801 1.423 1.557 2.792 1.881q.297.069.598.069c.7 0 1.263-.279 1.715-.504.388-.192.687-.336.931-.26 1.021.334 1.233.563 1.329.971.084.327-.262.602-1.544 1.221-.204.099-.407.197-.6.297-.689.355-1.205.399-1.986.466-.312.026-.645.055-1.004.104-.725.091-1.38.248-2.014.4-.731.176-1.422.341-2.023.341s-1.081-.165-1.545-.529c-.38-.304-.556-.627-.8-1.073-.177-.324-.377-.691-.693-1.109-.279-.352-.519-.858-.751-1.349-.512-1.083-1.149-2.431-2.598-2.431q-.372 0-.764.132c-1.126.379-1.501 1.281-1.775 1.939-.118.283-.229.55-.379.77-.375.535-.564 1.103-.732 1.604-.281.841-.369.94-.593.973-.361.052-.588-.101-1.125-.489-.16-.116-.326-.237-.502-.353-.346-.23-.55-.485-.809-.809-.289-.361-.617-.771-1.154-1.157-.597-.44-1.136-.651-1.611-.838-.384-.15-.716-.28-1.082-.523-.139-.093-.262-.249-.405-.431-.325-.412-.816-1.035-1.786-1.07l-.101-.002c-.731 0-1.752.26-2.466 1.497-.259.448-.44 1.053-.634 1.693-.314 1.045-.745 2.474-1.42 2.474h-.001c-.698-.047-2.753-1.846-3.741-2.711-.708-.62-1.32-1.155-1.761-1.447l-.332-.229c-.755-.525-1.533-1.066-2.561-1.066-.094 0-.19.015-.286.025M32 62c-11.484 0-21.458-6.456-26.499-15.936q.287.177.608.401l.362.249c.336.223.928.74 1.555 1.289 2.08 1.82 3.65 3.115 4.929 3.202 2.26.149 2.986-2.301 3.466-3.893.151-.503.309-1.023.451-1.271.265-.458.518-.496.772-.497.056.03.189.2.277.312.206.262.464.588.867.857.547.363 1.032.553 1.462.721.412.161.768.301 1.162.593.325.232.531.491.771.79.309.385.657.82 1.265 1.226q.229.154.434.304c.648.472 1.395 1.017 2.58.852 1.505-.216 1.928-1.481 2.208-2.318.137-.408.266-.793.481-1.102.272-.398.436-.791.579-1.137.257-.616.342-.737.568-.813.07-.024.108-.031.134-.027.203.064.579.859.781 1.286.267.565.57 1.205.978 1.719.213.281.361.554.52.842.286.525.611 1.121 1.312 1.683a4.37 4.37 0 0 0 2.788.962c.838 0 1.641-.192 2.489-.396.581-.14 1.183-.284 1.808-.362.332-.045.632-.07.913-.095.87-.073 1.691-.144 2.735-.682q.268-.138.552-.272c1.245-.602 3.127-1.511 2.616-3.499-.388-1.654-1.859-2.136-2.657-2.396a2.5 2.5 0 0 0-.77-.121c-.673 0-1.223.273-1.665.493-.384.191-.705.338-.966.279-.766-.182-1.145-.597-1.772-1.283q-.19-.209-.402-.434c-.218-.229-.345-.499-.492-.812-.252-.536-.565-1.203-1.377-1.686-.816-.485-1.87-.337-2.635-.116-.441.127-.797.239-1.069.093-.228-.12-.331-.332-.529-.825-.24-.595-.568-1.41-1.52-1.859a3.7 3.7 0 0 0-1.603-.369c-.99 0-1.834.39-2.728.803l-.483.221c-.845.376-1.36.942-1.775 1.397-.388.426-.668.733-1.147.902-1.146.403-2.039.6-2.729.6-.928 0-1.195-.35-1.334-.689-.338-.833-.306-1.108-.018-1.405.175 0 .362.037.557.07.522.088 1.2.164 1.782.013.954-.258 1.581-.584 2.245-.929.278-.145.573-.298.927-.463.235-.111.598-.174.947-.234.777-.134 2.396-.411 2.278-2.084-.121-1.496-1.484-1.816-2.299-2.008-.229-.054-.464-.106-.689-.188a3 3 0 0 0-.944-.159c.146-.216.247-.484.275-.82.085-1.224-.538-2.215-1.855-2.946a2.3 2.3 0 0 0-1.111-.291c-.512 0-.945.165-1.327.311-.344.13-.644.238-.889.203-.82-.12-1.309-.483-1.984-.985-.374-.278-.799-.594-1.325-.896-.433-.246-.771-.503-1.13-.774-.651-.493-1.324-1.004-2.42-1.312-1.395-.392-2.583-.296-4.041-.08l-.359.053c-.238.034-.458.054-.666.073-.757.071-1.539.144-2.433.754-.967.672-1.197 1.585-1.383 2.319-.118.467-.221.87-.501 1.213-.283.354-.58.556-.955.812a7.5 7.5 0 0 0-.947.734L2 32C2 17.388 12.45 5.221 26.283 2.551c.111.172.225.339.334.49.348.48.434.633.411.915-.025.331-.151.49-.545.944l-.196.23c-.26.312-.527.465-.898.676-.328.188-.701.4-1.111.754-.163.142-.33.25-.488.354-.477.316-1.131.75-1.371 1.701-.244.983.319 1.662.656 2.068.108.132.291.352.287.411-.04.51-.147.753-.514 1.14a1.2 1.2 0 0 1-.276.212c-.113.072-.232.15-.364.251l-.121.11c-.06.063-.586.643-.898 1.551-.237.715-.247 1.088-.044 1.598l.044.118c.036.121.07.547.072.822l-.084 1.218.814.203c.535.133.806.244 1.353.514.351.169.582.33.874.533l.294.199c.392.234.79.193 1.213.146.211.021.397.035.574.05.385.03.725.058 1.209.128l.314.039c.244.03.438.051.708.123.154.043.285.143.502.313.37.292.877.691 1.705.691.724-.005 1.192-.323 1.534-.556.198-.134.317-.212.465-.253.348-.099.746-.095 1.151-.074.584.033 1.175.021 1.723-.115.255-.064.458-.152.652-.242.17-.078.233-.105.254-.109l.072.002.052-.006c.066.005.169.049.299.104.257.11.608.262 1.138.28 1.079 0 2.751-1.39 2.771-1.407.186-.164.341-.236.599-.357.182-.085.373-.176.636-.329.276-.183.496-.361.704-.532.294-.241.487-.401.82-.517.697-.248 1.029-.34 1.461-.194.247.086.347.155.666.414.156.126.239.246.379.445.136.195.28.397.475.605.087.097.159.188.227.275.218.275.489.619.997.899.633.344 1.408.294 1.978.179.256-.052.455-.1.668-.067l.354.048c.244.031.42.054.591.11.086.026.176.062.284.12.438.233.602.441.987 1.017.342.522.417.906.554 1.604l.071.357c.121.615.134 1.033.151 1.611l.02.551c.011.265.032.497.054.716.043.438.071.728-.028 1.138-.059.25-.178.415-.402.709-.254.333-.57.748-.74 1.369l-.05.17c-.181.62-.353 1.206-.16 2.073.045.193.036.76.029 1.174-.019 1.132-.03 1.88.444 2.362.217.221.505.342.811.342l.31-.021.204-.098c.285-.136.532-.331.754-.547l.022.053c.275.614.863.967 1.615.967.824 0 2.492-.584 2.606-1.665.027-.285.016-.543.002-.786-.021-.351-.014-.419.053-.526.039-.03.207-.079.318-.11.35-.101.827-.237 1.269-.664.387-.384.56-.77.699-1.079.104-.232.164-.359.286-.485.072-.076.17-.126.348-.211.05.728.086 1.461.086 2.203 0 16.568-13.432 30-30 30"/><path d="M44.629 28.162c-1.1.317-1.496 1.157-1.786 1.771-.155.33-.29.614-.512.819-.392.366-.771.568-1.211.802-.488.26-1.041.554-1.613 1.088-.204.189-.438.352-.661.511-.737.523-1.852 1.314-1.525 2.804.214.935.933 1.493 1.922 1.493.655 0 1.366-.229 2.055-.451.34-.109.677-.22.984-.288 1.752-.383 2.951-.842 4.263-2.16q.217-.214.446-.432c1.134-1.08 2.846-2.713 1.573-4.603-.856-1.285-2.373-1.803-3.935-1.354m.981 4.509q-.244.232-.48.465c-.983.988-1.806 1.299-3.277 1.621-.365.08-.767.208-1.17.338-.502.161-1.069.345-1.414.354.021-.122.18-.271.735-.665.271-.193.58-.412.865-.678.382-.355.756-.555 1.19-.786.493-.263 1.053-.56 1.632-1.102.504-.464.757-1 .96-1.431.256-.541.335-.646.532-.703q.29-.084.559-.084c.491 0 .881.21 1.16.629.258.383-.032.841-1.292 2.042m-13.188 20.41q-.345 0-.707.11c-1.458.47-1.389 1.934-1.353 2.721.014.289.026.562-.001.8-.023.217-.083.425-.136.625-.178.672-.446 1.686.437 2.556.416.4.941.612 1.52.612.859 0 1.826-.497 2.593-1.334 1.174-1.307 1.188-3.217.043-4.633-.534-.679-1.287-1.457-2.396-1.457m.87 4.746c-.406.445-.866.678-1.11.678a.18.18 0 0 1-.138-.053c-.021-.092.062-.399.115-.603.071-.271.153-.579.189-.914.046-.391.027-.776.012-1.117-.011-.233-.026-.571.003-.731.168-.03.365.029.89.697.539.667.553 1.472.039 2.043"/></g></svg>