<svg viewBox="0 0 24 24" xmlns="http://www.w3.org/2000/svg"><path d="M9 14a4 4 0 1 0-4-4 4 4 0 0 0 4 4m0-6a2 2 0 1 1-2 2 2 2 0 0 1 2-2m-3 7h6a4 4 0 0 1 4 4v2a1 1 0 0 1-2 0v-2a2 2 0 0 0-2-2H6a2 2 0 0 0-2 2v2a1 1 0 0 1-2 0v-2a4 4 0 0 1 4-4m11.462-5a5.98 5.98 0 0 1-1.762 4.253 1 1 0 0 1-1.414-1.414 4.015 4.015 0 0 0 0-5.678A1 1 0 1 1 15.7 5.747 5.98 5.98 0 0 1 17.462 10m-.181 7.7a1 1 0 0 1 .024-1.414 8.667 8.667 0 0 0 0-12.562A1 1 0 0 1 18.7 2.281a10.667 10.667 0 0 1 0 15.438 1 1 0 0 1-1.414-.024Z"/></svg>