<svg xml:space="preserve" baseProfile="tiny" viewBox="-191 65 256 256" xmlns="http://www.w3.org/2000/svg"><path fill="#ffffff" d="M.4 95.8c-5.1 10.8-17.9 15.5-28.8 10.5s-15.5-17.9-10.5-28.8S-20.9 62-10 67 5.5 85 .4 95.8m46.7 71.4c0 5.1-4.3 9.5-9.5 9.5H-6.8c-4.1 0-7.6-2.7-8.9-6.2l-8.1-21.9-27.1 57.9 35.2 96.6c2.4 7-1.1 14.9-8.1 17.3s-14.9-1.1-17.3-8.1l-33.8-92.8-17.3 36.8c-2.2 4.6-6.8 7.8-12.2 7.8h-54.1c-7.6 0-13.5-6-13.5-13.5s6-13.5 13.5-13.5h45.4l49.2-105.5-21.1 7.6-17.3 36.8c-2.4 4.9-7.8 6.8-12.7 4.6-4.9-2.4-6.8-7.8-4.6-12.7l18.9-40.3c1.1-2.4 3.2-4.3 5.7-5.1l36-13c7.8-3.2 17.3-3.5 25.7.5l3.8 1.9c9.2 3.2 16 10.6 19.2 18.9l9.7 26.8h37.9c5.2-.1 9.5 4.2 9.8 9.6"/></svg>