<svg xml:space="preserve" viewBox="0 0 32 32" xmlns="http://www.w3.org/2000/svg"><path d="M20 13c0-.6-.4-1-1-1h-6c-.6 0-1 .4-1 1s.4 1 1 1h6c.6 0 1-.4 1-1"/><path d="M28.8 30.1c-.6-3-2.9-5.4-5.9-6.2-1.6-.4-2.7-1.7-2.9-3.2 1.1-.8 1.9-1.9 2.4-3.1.9-.5 1.5-1.5 1.5-2.6V6c0-3.3-2.7-6-6-6-1.8 0-3.5.8-4.6 2.2C10.2 2.9 8 5.7 8 9v6c0 1.1.7 2.1 1.6 2.6.5 1.2 1.3 2.3 2.4 3-.2 1.6-1.4 2.9-3 3.3-3 .8-5.2 3.1-5.8 6.1-.1.5 0 .9.3 1.3.3.5.7.7 1.2.7h22.7q.75 0 1.2-.6c.2-.3.3-.8.2-1.3M11 16c-.6 0-1-.4-1-1v-3c0-.6.4-1 1-1h10c.6 0 1 .4 1 1v3c0 .6-.4 1-1 1-1.4 0-2.7-.2-3.8-.7q-.6-.3-1.2-.3c-.6 0-.8.1-1.2.3-1.1.5-2.4.7-3.8.7"/></svg>