<svg width="40" height="28" viewBox="0 0 40 28" fill="none" xmlns="http://www.w3.org/2000/svg">
  <path
    d="M4.57039 5.61596C2.55814 5.11859 2.04729 4.7056 2.04729 3.69398C2.04729 2.71511 2.89384 1.97749 4.41665 1.97749C6.02704 1.97749 7.04095 2.88785 7.14312 4.58548L8.78563 4.32835C8.75449 1.95962 7.05944 0.484375 4.58791 0.484375C1.99766 0.484375 0.321105 1.77199 0.321105 3.85083C0.321105 5.75694 1.16765 6.68318 4.45168 7.40294C6.46394 7.86755 7.17718 8.29543 7.17718 9.42916C7.17718 10.5629 6.14478 11.1963 4.67159 11.1963C2.91135 11.1963 1.74467 10.2343 1.64153 8.62006L0 8.91193C0.20142 11.3154 2.0648 12.7271 4.57039 12.7271C7.16064 12.7271 8.92088 11.4008 8.92088 9.34478C8.92088 7.24608 7.90502 6.45683 4.57039 5.61596Z"
    fill="#FF5500" />
  <path d="M12.5329 7.12035H18.4277V5.60142H12.5329V2.08406H18.7332V0.583008H10.8398V12.5319H18.8013V11.0289H12.5329V7.12035Z"
    fill="#FF5500" />
  <path d="M22.8923 7.12035H28.788V5.60142H22.8923V2.08406H29.0916V0.583008H21.1982V12.5319H29.1597V11.0289H22.8913L22.8923 7.12035Z"
    fill="#FF5500" />
  <path d="M0 16.9738H3.64016V27.4186H5.33229V16.9738H8.92088V15.4697H0V16.9738Z" fill="#FF5500" />
  <path d="M17.1072 20.505H12.5329V15.4697H10.8398V27.4186H12.5329V22.0081H17.1072V27.4186H18.8013V15.4697H17.1072V20.505Z"
    fill="#FF5500" />
  <path
    d="M24.3071 15.4697H21.1992V16.9738H24.3071V25.9136H21.1992V27.4186H24.3587H26.0528H29.1607V25.9136H26.0528V16.9738H29.1607V15.4697H26.0012H24.3071Z"
    fill="#FF5500" />
  <path d="M32.8683 2.08406H38.1149V12.5309H39.7127V0.583008H38.5946H32.0888H31.2715V12.5319H32.8692L32.8683 2.08406Z" fill="#FF5500" />
  <path
    d="M35.6495 20.406C33.6372 19.9077 33.1264 19.4957 33.1264 18.484C33.1264 17.5052 33.9729 16.7675 35.4967 16.7675C37.1071 16.7675 38.121 17.6779 38.2232 19.3755L39.8657 19.1184C39.8307 16.7487 38.1376 15.2734 35.666 15.2734C33.0768 15.2734 31.4002 16.5601 31.4002 18.6409C31.4002 20.547 32.2468 21.4732 35.5308 22.194C37.543 22.6576 38.2563 23.0865 38.2563 24.2202C38.2563 25.3539 37.2239 25.9883 35.7507 25.9883C33.9905 25.9883 32.8238 25.0263 32.7206 23.4121L31.0791 23.704C31.2805 26.1084 33.1439 27.5162 35.6495 27.5162C38.2397 27.5162 40 26.1899 40 24.1338C40 22.0361 38.9841 21.2469 35.6495 20.406Z"
    fill="#FF5500" />
</svg>