<svg viewBox="0 0 256 256" xmlns="http://www.w3.org/2000/svg"><path fill-rule="evenodd" stroke="#979797" d="M59 61.922c0-9.768 13.016-15.432 22.352-11.615 10.695 7.017 101.643 58.238 109.869 65.076s10.585 17.695-.559 25.77-99.712 60.203-109.31 64.73c-9.6 4.526-21.952-1.632-22.352-13.088s0-121.106 0-130.873zm13.437 8.48c0 2.494-.076 112.852-.216 115.122-.23 3.723 3 7.464 7.5 5.245s97.522-57.704 101.216-59.141c3.695-1.438 3.45-5.1 0-7.388C177.488 121.952 82.77 67.76 80 65.38s-7.563 1.193-7.563 5.023z"/></svg>