<?xml version="1.0" encoding="utf-8"?>

<!-- Uploaded to: SVG Repo, www.svgrepo.com, Generator: SVG Repo Mixer Tools -->
<svg version="1.1" id="Icons" xmlns="http://www.w3.org/2000/svg" xmlns:xlink="http://www.w3.org/1999/xlink" 
	 viewBox="0 0 32 32" xml:space="preserve">
<style type="text/css">
	.st0{fill:none;stroke:#000000;stroke-width:2;stroke-linecap:round;stroke-linejoin:round;stroke-miterlimit:10;}
</style>
<g>
	<path d="M20,13c0-0.6-0.4-1-1-1h-6c-0.6,0-1,0.4-1,1s0.4,1,1,1h6C19.6,14,20,13.6,20,13z"/>
	<path d="M28.8,30.1c-0.6-3-2.9-5.4-5.9-6.2c-1.6-0.4-2.7-1.7-2.9-3.2c1.1-0.8,1.9-1.9,2.4-3.1c0.9-0.5,1.5-1.5,1.5-2.6v-2v-1V6
		c0-3.3-2.7-6-6-6c-1.8,0-3.5,0.8-4.6,2.2C10.2,2.9,8,5.7,8,9v3v1v2c0,1.1,0.7,2.1,1.6,2.6c0.5,1.2,1.3,2.3,2.4,3
		c-0.2,1.6-1.4,2.9-3,3.3c-3,0.8-5.2,3.1-5.8,6.1c-0.1,0.5,0,0.9,0.3,1.3C3.8,31.8,4.2,32,4.7,32h22.7c0.5,0,0.9-0.2,1.2-0.6
		C28.8,31.1,28.9,30.6,28.8,30.1z M11,16c-0.6,0-1-0.4-1-1v-2v-1c0-0.6,0.4-1,1-1h10c0.6,0,1,0.4,1,1v1v2c0,0.6-0.4,1-1,1
		c-1.4,0-2.7-0.2-3.8-0.7C16.8,15.1,16.4,15,16,15s-0.8,0.1-1.2,0.3C13.7,15.8,12.4,16,11,16z"/>
</g>
</svg>